<svg xmlns="http://www.w3.org/2000/svg" xmlns:xlink="http://www.w3.org/1999/xlink" width="500" zoomAndPan="magnify" viewBox="0 0 375 374.999991" height="500" preserveAspectRatio="xMidYMid meet" version="1.0"><defs><g/><clipPath id="c8a4fb4f01"><path d="M 24.886719 137 L 368.34375 137 L 368.34375 168 L 24.886719 168 Z M 24.886719 137 " clip-rule="nonzero"/></clipPath><clipPath id="4fc165ffad"><path d="M 94 250 L 299 250 L 299 307.683594 L 94 307.683594 Z M 94 250 " clip-rule="nonzero"/></clipPath><clipPath id="388c233b67"><path d="M 80 67.683594 L 313 67.683594 L 313 158 L 80 158 Z M 80 67.683594 " clip-rule="nonzero"/></clipPath></defs><g clip-path="url(#c8a4fb4f01)"><path fill="#ffffff" d="M 321.503906 151.46875 C 322.28125 152.753906 323.308594 154.019531 324.511719 155.242188 C 325.835938 154.957031 327.046875 154.539062 328.125 154.015625 C 330.164062 153.019531 331.6875 151.65625 332.488281 150.082031 C 333.195312 148.703125 333.339844 147.132812 332.777344 145.492188 C 332.425781 144.476562 331.898438 143.609375 331.253906 142.890625 C 330.226562 141.75 328.90625 140.980469 327.550781 140.59375 C 326.222656 140.21875 324.875 140.214844 323.757812 140.597656 C 323.25 140.773438 322.789062 141.03125 322.414062 141.367188 C 321.300781 142.371094 320.589844 143.429688 320.222656 144.519531 C 319.484375 146.6875 320.066406 149.09375 321.503906 151.46875 M 64.859375 154.015625 C 65.9375 154.539062 67.148438 154.957031 68.472656 155.242188 C 69.675781 154.019531 70.703125 152.753906 71.480469 151.46875 C 72.917969 149.09375 73.5 146.6875 72.765625 144.523438 C 72.394531 143.429688 71.683594 142.371094 70.570312 141.371094 C 70.195312 141.03125 69.738281 140.773438 69.226562 140.597656 C 68.109375 140.214844 66.761719 140.21875 65.433594 140.597656 C 64.078125 140.980469 62.757812 141.75 61.730469 142.894531 C 61.085938 143.609375 60.558594 144.480469 60.207031 145.492188 C 59.644531 147.132812 59.792969 148.707031 60.496094 150.085938 C 61.296875 151.65625 62.820312 153.019531 64.859375 154.015625 Z M 93.847656 149.382812 C 86.730469 155.886719 79.039062 158.398438 72.59375 158.375 C 71.472656 158.371094 70.390625 158.289062 69.355469 158.144531 C 68.332031 159.089844 67.21875 160 66.042969 160.851562 C 63.765625 162.503906 61.238281 163.960938 58.65625 165.121094 L 334.328125 165.121094 C 331.746094 163.960938 329.21875 162.503906 326.941406 160.851562 C 325.765625 160 324.652344 159.089844 323.625 158.144531 C 322.589844 158.289062 321.507812 158.371094 320.390625 158.375 C 313.945312 158.398438 306.253906 155.886719 299.136719 149.382812 L 300.960938 147.378906 C 307.523438 153.378906 314.539062 155.695312 320.390625 155.671875 C 320.671875 155.671875 320.949219 155.664062 321.226562 155.65625 C 320.449219 154.742188 319.765625 153.8125 319.195312 152.867188 C 317.351562 149.824219 316.636719 146.648438 317.652344 143.652344 C 318.171875 142.128906 319.128906 140.679688 320.601562 139.355469 C 321.257812 138.765625 322.03125 138.324219 322.878906 138.035156 C 324.511719 137.472656 326.429688 137.464844 328.28125 137.988281 C 330.109375 138.507812 331.886719 139.546875 333.265625 141.082031 C 334.148438 142.0625 334.867188 143.242188 335.339844 144.613281 C 336.15625 146.984375 335.933594 149.28125 334.894531 151.3125 C 333.820312 153.421875 331.867188 155.207031 329.3125 156.453125 C 328.5625 156.816406 327.757812 157.140625 326.902344 157.40625 C 327.425781 157.835938 327.96875 158.25 328.53125 158.660156 C 333.226562 162.0625 339.011719 164.582031 343.929688 165.128906 L 368.144531 167.832031 L 24.84375 167.832031 L 49.054688 165.128906 C 53.972656 164.582031 59.757812 162.0625 64.453125 158.65625 C 65.011719 158.25 65.554688 157.832031 66.082031 157.40625 C 65.226562 157.136719 64.421875 156.816406 63.671875 156.449219 C 61.113281 155.207031 59.164062 153.421875 58.089844 151.3125 C 57.050781 149.28125 56.828125 146.984375 57.644531 144.613281 C 58.117188 143.238281 58.839844 142.0625 59.71875 141.078125 C 61.101562 139.546875 62.878906 138.503906 64.703125 137.988281 C 66.554688 137.464844 68.472656 137.472656 70.105469 138.035156 C 70.953125 138.324219 71.726562 138.765625 72.382812 139.355469 C 73.855469 140.679688 74.8125 142.128906 75.332031 143.652344 C 76.347656 146.648438 75.632812 149.824219 73.789062 152.867188 C 73.21875 153.8125 72.535156 154.742188 71.761719 155.65625 C 72.035156 155.664062 72.3125 155.671875 72.59375 155.671875 C 78.441406 155.691406 85.460938 153.375 92.023438 147.378906 Z M 93.847656 149.382812 " fill-opacity="1" fill-rule="nonzero"/></g><path fill="#ffffff" d="M 307.199219 254.925781 C 306.535156 255.535156 305.914062 256.203125 305.34375 256.941406 C 303.433594 259.425781 302.96875 261.421875 303.363281 262.875 C 303.550781 263.558594 303.925781 264.125 304.421875 264.566406 C 304.953125 265.039062 305.628906 265.378906 306.371094 265.578125 C 308.058594 266.03125 310.03125 265.730469 311.433594 264.519531 C 313.128906 263.054688 313.539062 261.449219 313.011719 259.972656 C 312.578125 258.765625 311.558594 257.578125 310.105469 256.539062 C 309.265625 255.9375 308.285156 255.390625 307.199219 254.925781 M 85.785156 254.925781 C 84.699219 255.390625 83.71875 255.933594 82.878906 256.539062 C 81.425781 257.578125 80.40625 258.765625 79.976562 259.972656 C 79.445312 261.449219 79.855469 263.054688 81.550781 264.519531 C 82.953125 265.730469 84.925781 266.03125 86.613281 265.578125 C 87.355469 265.378906 88.03125 265.039062 88.5625 264.566406 C 89.058594 264.125 89.4375 263.558594 89.621094 262.875 C 90.015625 261.421875 89.554688 259.425781 87.640625 256.941406 C 87.070312 256.203125 86.449219 255.535156 85.785156 254.925781 Z M 113.105469 262.304688 C 105.574219 253.585938 95.785156 252.152344 88.675781 253.957031 L 88.65625 253.960938 C 89.046875 254.378906 89.421875 254.824219 89.78125 255.289062 C 92.289062 258.546875 92.839844 261.378906 92.238281 263.589844 C 91.910156 264.792969 91.242188 265.804688 90.351562 266.59375 C 89.496094 267.351562 88.445312 267.894531 87.3125 268.199219 C 84.832031 268.863281 81.902344 268.394531 79.78125 266.566406 C 77.117188 264.261719 76.519531 261.601562 77.433594 259.058594 C 78.058594 257.316406 79.414062 255.6875 81.300781 254.335938 C 81.925781 253.886719 82.617188 253.464844 83.359375 253.078125 C 71.179688 245.414062 49.675781 252.332031 49.605469 252.355469 L 28.113281 259.117188 L 48.648438 249.828125 C 81.964844 234.753906 139.25 227.214844 196.492188 227.214844 C 253.734375 227.214844 311.019531 234.753906 344.339844 249.828125 L 364.875 259.117188 L 343.378906 252.355469 C 343.308594 252.332031 321.804688 245.414062 309.625 253.078125 C 310.367188 253.464844 311.058594 253.886719 311.6875 254.335938 C 313.570312 255.6875 314.929688 257.316406 315.550781 259.058594 C 316.464844 261.601562 315.867188 264.261719 313.203125 266.566406 C 311.082031 268.394531 308.152344 268.863281 305.671875 268.199219 C 304.539062 267.894531 303.488281 267.351562 302.632812 266.59375 C 301.742188 265.804688 301.074219 264.792969 300.746094 263.589844 C 300.144531 261.378906 300.695312 258.546875 303.203125 255.289062 C 303.5625 254.824219 303.9375 254.378906 304.328125 253.960938 L 304.308594 253.957031 C 297.199219 252.152344 287.410156 253.585938 279.878906 262.304688 L 277.835938 260.535156 C 286.164062 250.890625 297.046875 249.320312 304.96875 251.328125 C 305.558594 251.480469 306.132812 251.648438 306.691406 251.835938 C 313.042969 247.007812 322.058594 246.378906 329.660156 247.007812 C 295.917969 235.621094 246.222656 229.929688 196.492188 229.929688 C 146.761719 229.929688 97.066406 235.621094 63.324219 247.007812 C 70.925781 246.378906 79.945312 247.007812 86.296875 251.835938 C 86.855469 251.648438 87.425781 251.476562 88.019531 251.328125 C 95.9375 249.320312 106.824219 250.890625 115.152344 260.535156 Z M 113.105469 262.304688 " fill-opacity="1" fill-rule="nonzero"/><path fill="#ffffff" d="M 146.839844 123.003906 C 132.785156 133.835938 122.375 149.15625 117.75 166.816406 L 117.484375 167.832031 L 86.179688 167.832031 L 86.488281 166.222656 C 91.5 140.152344 105.554688 117.296875 125.257812 101.042969 C 144.621094 85.074219 169.4375 75.476562 196.492188 75.476562 C 223.546875 75.476562 248.363281 85.074219 267.726562 101.042969 C 287.429688 117.296875 301.484375 140.152344 306.496094 166.222656 L 306.804688 167.832031 L 275.503906 167.832031 L 275.238281 166.816406 C 270.613281 149.15625 260.199219 133.835938 246.144531 123.003906 C 232.410156 112.410156 215.191406 106.113281 196.492188 106.113281 C 177.796875 106.109375 160.574219 112.410156 146.839844 123.003906 M 115.40625 165.121094 C 120.316406 147.296875 130.941406 131.84375 145.183594 120.863281 C 159.386719 109.910156 177.183594 103.398438 196.492188 103.398438 C 215.804688 103.398438 233.597656 109.910156 247.800781 120.863281 C 262.042969 131.84375 272.667969 147.296875 277.578125 165.121094 L 303.511719 165.121094 C 298.359375 140.351562 284.824219 118.652344 266.011719 103.132812 C 247.121094 87.550781 222.898438 78.1875 196.492188 78.1875 C 170.085938 78.1875 145.867188 87.550781 126.976562 103.132812 C 108.160156 118.652344 94.625 140.347656 89.472656 165.117188 L 115.40625 165.117188 Z M 115.40625 165.121094 " fill-opacity="1" fill-rule="nonzero"/><path fill="#ffffff" d="M 111.648438 233.210938 C 116.566406 232.457031 121.648438 231.765625 126.871094 231.144531 L 127.703125 231.046875 L 128.164062 231.753906 C 135.550781 243.136719 145.707031 252.558594 157.675781 259.0625 C 169.207031 265.332031 182.429688 268.894531 196.492188 268.894531 C 210.554688 268.894531 223.777344 265.332031 235.308594 259.0625 C 247.277344 252.558594 257.433594 243.136719 264.820312 231.753906 L 265.277344 231.046875 L 266.113281 231.144531 C 271.335938 231.769531 276.417969 232.457031 281.335938 233.210938 C 286.261719 233.960938 291.070312 234.785156 295.75 235.675781 L 297.507812 236.011719 L 296.707031 237.609375 C 287.359375 256.273438 272.953125 271.957031 255.289062 282.871094 C 238.191406 293.433594 218.050781 299.53125 196.492188 299.53125 C 174.933594 299.53125 154.792969 293.433594 137.699219 282.871094 C 120.035156 271.960938 105.625 256.273438 96.277344 237.609375 L 95.476562 236.011719 L 97.234375 235.679688 C 101.914062 234.785156 106.726562 233.960938 111.648438 233.210938 M 126.363281 233.9375 C 121.472656 234.527344 116.695312 235.179688 112.050781 235.890625 C 107.71875 236.550781 103.535156 237.257812 99.511719 238 C 108.644531 255.507812 122.382812 270.234375 139.117188 280.570312 C 155.789062 290.871094 175.445312 296.816406 196.492188 296.816406 C 217.542969 296.816406 237.195312 290.871094 253.867188 280.570312 C 270.601562 270.234375 284.335938 255.507812 293.472656 238 C 289.449219 237.257812 285.265625 236.550781 280.933594 235.890625 C 276.289062 235.179688 271.515625 234.527344 266.621094 233.9375 C 259.03125 245.375 248.714844 254.855469 236.601562 261.4375 C 224.671875 267.921875 211.007812 271.605469 196.492188 271.605469 C 181.976562 271.605469 168.308594 267.921875 156.382812 261.4375 C 144.269531 254.855469 133.953125 245.375 126.363281 233.9375 Z M 126.363281 233.9375 " fill-opacity="1" fill-rule="nonzero"/><g clip-path="url(#4fc165ffad)"><path fill="#ffffff" d="M 106.664062 253.671875 C 109.382812 255.117188 112.035156 257.117188 114.484375 259.785156 L 114.5 259.804688 C 124.703125 271.367188 137.320312 280.757812 151.5625 287.1875 C 165.265625 293.371094 180.472656 296.8125 196.492188 296.8125 C 212.511719 296.8125 227.722656 293.371094 241.425781 287.1875 C 255.667969 280.757812 268.285156 271.363281 278.488281 259.800781 L 278.503906 259.78125 C 280.949219 257.113281 283.601562 255.113281 286.320312 253.671875 C 289.363281 252.054688 292.488281 251.136719 295.511719 250.761719 L 298.40625 250.402344 L 296.8125 252.84375 C 285.929688 269.511719 271.011719 283.300781 253.445312 292.824219 C 236.503906 302.003906 217.105469 307.21875 196.492188 307.21875 C 175.878906 307.21875 156.480469 302.003906 139.539062 292.824219 C 121.972656 283.300781 107.050781 269.511719 96.171875 252.84375 L 94.582031 250.402344 L 97.472656 250.761719 C 100.496094 251.136719 103.621094 252.054688 106.664062 253.671875 M 112.492188 261.617188 C 110.265625 259.191406 107.859375 257.375 105.394531 256.066406 C 103.691406 255.164062 101.960938 254.5 100.242188 254.050781 C 110.695312 269.136719 124.601562 281.648438 140.824219 290.4375 C 157.375 299.40625 176.335938 304.503906 196.492188 304.503906 C 216.648438 304.503906 235.609375 299.40625 252.164062 290.4375 C 268.382812 281.648438 282.292969 269.136719 292.742188 254.050781 C 291.023438 254.5 289.292969 255.160156 287.59375 256.066406 C 285.128906 257.375 282.722656 259.191406 280.496094 261.613281 C 270.039062 273.457031 257.117188 283.074219 242.535156 289.65625 C 228.488281 295.996094 212.898438 299.527344 196.492188 299.527344 C 180.085938 299.527344 164.5 295.996094 150.453125 289.65625 C 135.871094 283.074219 122.949219 273.460938 112.492188 261.617188 Z M 112.492188 261.617188 " fill-opacity="1" fill-rule="nonzero"/></g><g clip-path="url(#388c233b67)"><path fill="#ffffff" d="M 134.425781 97.5 C 116.285156 110.035156 102.117188 127.914062 94.203125 148.859375 L 94.085938 149.164062 L 93.847656 149.382812 C 92.15625 150.929688 90.429688 152.25 88.691406 153.367188 C 86.84375 154.554688 84.992188 155.507812 83.164062 156.25 L 80.589844 157.292969 L 81.351562 154.621094 C 88.578125 129.261719 103.960938 107.335938 124.480469 91.863281 C 144.523438 76.75 169.460938 67.789062 196.492188 67.789062 C 223.523438 67.789062 248.464844 76.75 268.503906 91.863281 C 289.023438 107.335938 304.40625 129.261719 311.632812 154.621094 L 312.394531 157.292969 L 309.820312 156.25 C 307.992188 155.507812 306.140625 154.554688 304.292969 153.367188 C 302.554688 152.25 300.828125 150.929688 299.136719 149.382812 L 298.898438 149.164062 L 298.785156 148.859375 C 290.867188 127.914062 276.699219 110.035156 258.558594 97.5 C 240.933594 85.324219 219.546875 78.1875 196.492188 78.1875 C 173.4375 78.1875 152.050781 85.324219 134.425781 97.5 M 91.789062 147.59375 C 99.925781 126.265625 114.390625 108.058594 132.890625 95.277344 C 150.960938 82.789062 172.875 75.476562 196.492188 75.476562 C 220.109375 75.476562 242.023438 82.789062 260.09375 95.277344 C 278.59375 108.058594 293.058594 126.265625 301.195312 147.59375 C 302.699219 148.945312 304.226562 150.105469 305.753906 151.085938 C 306.558594 151.605469 307.363281 152.074219 308.167969 152.496094 C 300.785156 128.925781 286.148438 108.5625 266.871094 94.027344 C 247.289062 79.257812 222.914062 70.503906 196.492188 70.503906 C 170.070312 70.503906 145.695312 79.257812 126.113281 94.027344 C 106.835938 108.5625 92.199219 128.925781 84.820312 152.496094 C 85.621094 152.074219 86.429688 151.605469 87.230469 151.085938 C 88.757812 150.105469 90.285156 148.945312 91.789062 147.59375 Z M 91.789062 147.59375 " fill-opacity="1" fill-rule="nonzero"/></g><path fill="#ffffff" d="M 195.136719 69.144531 L 197.847656 69.144531 L 197.847656 76.832031 L 195.136719 76.832031 Z M 195.136719 69.144531 " fill-opacity="1" fill-rule="nonzero"/><path fill="#ffffff" d="M 166.554688 80.960938 L 164.5625 73.535156 L 167.179688 72.835938 L 169.171875 80.261719 Z M 166.554688 80.960938 " fill-opacity="1" fill-rule="nonzero"/><path fill="#ffffff" d="M 138.484375 84.328125 L 142.328125 90.988281 L 139.988281 92.332031 L 136.144531 85.675781 Z M 138.484375 84.328125 " fill-opacity="1" fill-rule="nonzero"/><path fill="#ffffff" d="M 117.277344 110.207031 L 111.839844 104.773438 L 113.757812 102.855469 L 119.195312 108.289062 Z M 117.277344 110.207031 " fill-opacity="1" fill-rule="nonzero"/><path fill="#ffffff" d="M 94.664062 127.152344 L 101.324219 130.996094 L 99.976562 133.339844 L 93.320312 129.496094 Z M 94.664062 127.152344 " fill-opacity="1" fill-rule="nonzero"/><path fill="#ffffff" d="M 119.175781 266.699219 L 113.742188 272.136719 L 111.824219 270.21875 L 117.257812 264.78125 Z M 119.175781 266.699219 " fill-opacity="1" fill-rule="nonzero"/><path fill="#ffffff" d="M 136.144531 289.332031 L 139.988281 282.671875 L 142.328125 284.015625 L 138.484375 290.675781 Z M 136.144531 289.332031 " fill-opacity="1" fill-rule="nonzero"/><path fill="#ffffff" d="M 169.179688 294.761719 L 167.191406 302.191406 L 164.574219 301.488281 L 166.5625 294.0625 Z M 169.179688 294.761719 " fill-opacity="1" fill-rule="nonzero"/><path fill="#ffffff" d="M 195.136719 298.171875 L 197.847656 298.171875 L 197.847656 305.859375 L 195.136719 305.859375 Z M 195.136719 298.171875 " fill-opacity="1" fill-rule="nonzero"/><path fill="#ffffff" d="M 226.4375 294.042969 L 228.425781 301.46875 L 225.808594 302.167969 L 223.816406 294.742188 Z M 226.4375 294.042969 " fill-opacity="1" fill-rule="nonzero"/><path fill="#ffffff" d="M 254.5 290.675781 L 250.65625 284.015625 L 252.996094 282.671875 L 256.84375 289.332031 Z M 254.5 290.675781 " fill-opacity="1" fill-rule="nonzero"/><path fill="#ffffff" d="M 275.6875 264.804688 L 281.125 270.242188 L 279.207031 272.160156 L 273.773438 266.722656 Z M 275.6875 264.804688 " fill-opacity="1" fill-rule="nonzero"/><path fill="#ffffff" d="M 228.433594 73.527344 L 226.445312 80.953125 L 223.828125 80.253906 L 225.816406 72.828125 Z M 228.433594 73.527344 " fill-opacity="1" fill-rule="nonzero"/><path fill="#ffffff" d="M 256.84375 85.675781 L 252.996094 92.332031 L 250.65625 90.988281 L 254.5 84.328125 Z M 256.84375 85.675781 " fill-opacity="1" fill-rule="nonzero"/><path fill="#ffffff" d="M 273.789062 108.292969 L 279.226562 102.855469 L 281.144531 104.773438 L 275.707031 110.210938 Z M 273.789062 108.292969 " fill-opacity="1" fill-rule="nonzero"/><path fill="#ffffff" d="M 299.664062 129.496094 L 293.007812 133.339844 L 291.660156 130.996094 L 298.320312 127.152344 Z M 299.664062 129.496094 " fill-opacity="1" fill-rule="nonzero"/><path fill="#ffffff" d="M 252.765625 131.230469 C 238.363281 116.828125 218.46875 107.921875 196.492188 107.921875 C 174.519531 107.921875 154.621094 116.832031 140.222656 131.230469 C 130.589844 140.863281 123.414062 152.953125 119.71875 166.476562 L 124.417969 166.476562 C 127.992188 154.203125 134.617188 143.226562 143.417969 134.429688 C 157 120.84375 175.765625 112.445312 196.492188 112.445312 C 217.21875 112.445312 235.984375 120.84375 249.566406 134.429688 C 258.367188 143.226562 264.992188 154.203125 268.566406 166.476562 L 273.265625 166.476562 C 269.570312 152.953125 262.394531 140.863281 252.765625 131.230469 " fill-opacity="1" fill-rule="evenodd"/><path fill="#ffffff" d="M 196.492188 262.558594 C 175.765625 262.558594 157 254.160156 143.417969 240.574219 C 140.609375 237.765625 138.023438 234.738281 135.683594 231.511719 C 133.964844 231.6875 132.25 231.867188 130.542969 232.054688 C 133.394531 236.265625 136.636719 240.191406 140.222656 243.773438 C 154.625 258.175781 174.519531 267.082031 196.492188 267.082031 C 218.46875 267.082031 238.363281 258.175781 252.765625 243.773438 C 256.347656 240.191406 259.589844 236.265625 262.441406 232.054688 C 260.738281 231.867188 259.023438 231.6875 257.300781 231.511719 C 254.964844 234.738281 252.375 237.765625 249.566406 240.574219 C 235.984375 254.160156 217.21875 262.558594 196.492188 262.558594 " fill-opacity="1" fill-rule="evenodd"/><path fill="#ffffff" d="M 106.398438 148.539062 C 107.558594 148.539062 108.558594 149.21875 109.023438 150.199219 C 108.519531 149.578125 107.75 149.179688 106.886719 149.179688 C 105.371094 149.179688 104.140625 150.410156 104.140625 151.925781 C 104.140625 152.789062 104.542969 153.558594 105.164062 154.058594 C 104.179688 153.597656 103.5 152.597656 103.5 151.4375 C 103.5 149.835938 104.796875 148.539062 106.398438 148.539062 M 106.398438 147.730469 C 108.445312 147.730469 110.105469 149.390625 110.105469 151.4375 C 110.105469 153.484375 108.445312 155.144531 106.398438 155.144531 C 104.351562 155.144531 102.691406 153.484375 102.691406 151.4375 C 102.691406 149.390625 104.351562 147.730469 106.398438 147.730469 Z M 106.398438 147.730469 " fill-opacity="1" fill-rule="evenodd"/><path fill="#ffffff" d="M 286.585938 148.539062 C 287.742188 148.539062 288.742188 149.21875 289.207031 150.199219 C 288.703125 149.578125 287.933594 149.179688 287.070312 149.179688 C 285.558594 149.179688 284.328125 150.410156 284.328125 151.925781 C 284.328125 152.789062 284.726562 153.558594 285.347656 154.058594 C 284.367188 153.597656 283.683594 152.597656 283.683594 151.4375 C 283.6875 149.835938 284.984375 148.539062 286.585938 148.539062 M 286.585938 147.730469 C 288.632812 147.730469 290.292969 149.390625 290.292969 151.4375 C 290.292969 153.484375 288.632812 155.144531 286.585938 155.144531 C 284.539062 155.144531 282.878906 153.484375 282.878906 151.4375 C 282.878906 149.390625 284.539062 147.730469 286.585938 147.730469 Z M 286.585938 147.730469 " fill-opacity="1" fill-rule="evenodd"/><path fill="#ffffff" d="M 86.707031 172.582031 L 306.277344 172.582031 L 306.277344 175.292969 L 86.707031 175.292969 Z M 86.707031 172.582031 " fill-opacity="1" fill-rule="evenodd"/><path fill="#ffffff" d="M 91.875 165.121094 L 94.589844 165.121094 L 94.589844 175.292969 L 91.875 175.292969 Z M 91.875 165.121094 " fill-opacity="1" fill-rule="evenodd"/><path fill="#ffffff" d="M 101.710938 165.121094 L 104.421875 165.121094 L 104.421875 175.292969 L 101.710938 175.292969 Z M 101.710938 165.121094 " fill-opacity="1" fill-rule="evenodd"/><path fill="#ffffff" d="M 111.542969 165.121094 L 114.257812 165.121094 L 114.257812 175.292969 L 111.542969 175.292969 Z M 111.542969 165.121094 " fill-opacity="1" fill-rule="evenodd"/><path fill="#ffffff" d="M 121.378906 165.121094 L 124.09375 165.121094 L 124.09375 175.292969 L 121.378906 175.292969 Z M 121.378906 165.121094 " fill-opacity="1" fill-rule="evenodd"/><path fill="#ffffff" d="M 131.210938 165.121094 L 133.925781 165.121094 L 133.925781 175.292969 L 131.210938 175.292969 Z M 131.210938 165.121094 " fill-opacity="1" fill-rule="evenodd"/><path fill="#ffffff" d="M 141.046875 165.121094 L 143.761719 165.121094 L 143.761719 175.292969 L 141.046875 175.292969 Z M 141.046875 165.121094 " fill-opacity="1" fill-rule="evenodd"/><path fill="#ffffff" d="M 150.882812 165.121094 L 153.59375 165.121094 L 153.59375 175.292969 L 150.882812 175.292969 Z M 150.882812 165.121094 " fill-opacity="1" fill-rule="evenodd"/><path fill="#ffffff" d="M 160.714844 165.121094 L 163.429688 165.121094 L 163.429688 175.292969 L 160.714844 175.292969 Z M 160.714844 165.121094 " fill-opacity="1" fill-rule="evenodd"/><path fill="#ffffff" d="M 170.550781 165.121094 L 173.261719 165.121094 L 173.261719 175.292969 L 170.550781 175.292969 Z M 170.550781 165.121094 " fill-opacity="1" fill-rule="evenodd"/><path fill="#ffffff" d="M 180.386719 165.121094 L 183.097656 165.121094 L 183.097656 175.292969 L 180.386719 175.292969 Z M 180.386719 165.121094 " fill-opacity="1" fill-rule="evenodd"/><path fill="#ffffff" d="M 190.21875 165.121094 L 192.933594 165.121094 L 192.933594 175.292969 L 190.21875 175.292969 Z M 190.21875 165.121094 " fill-opacity="1" fill-rule="evenodd"/><path fill="#ffffff" d="M 200.054688 165.121094 L 202.765625 165.121094 L 202.765625 175.292969 L 200.054688 175.292969 Z M 200.054688 165.121094 " fill-opacity="1" fill-rule="evenodd"/><path fill="#ffffff" d="M 209.886719 165.121094 L 212.601562 165.121094 L 212.601562 175.292969 L 209.886719 175.292969 Z M 209.886719 165.121094 " fill-opacity="1" fill-rule="evenodd"/><path fill="#ffffff" d="M 219.722656 165.121094 L 222.4375 165.121094 L 222.4375 175.292969 L 219.722656 175.292969 Z M 219.722656 165.121094 " fill-opacity="1" fill-rule="evenodd"/><path fill="#ffffff" d="M 229.558594 165.121094 L 232.269531 165.121094 L 232.269531 175.292969 L 229.558594 175.292969 Z M 229.558594 165.121094 " fill-opacity="1" fill-rule="evenodd"/><path fill="#ffffff" d="M 239.390625 165.121094 L 242.105469 165.121094 L 242.105469 175.292969 L 239.390625 175.292969 Z M 239.390625 165.121094 " fill-opacity="1" fill-rule="evenodd"/><path fill="#ffffff" d="M 249.222656 165.121094 L 251.9375 165.121094 L 251.9375 175.292969 L 249.222656 175.292969 Z M 249.222656 165.121094 " fill-opacity="1" fill-rule="evenodd"/><path fill="#ffffff" d="M 259.058594 165.121094 L 261.773438 165.121094 L 261.773438 175.292969 L 259.058594 175.292969 Z M 259.058594 165.121094 " fill-opacity="1" fill-rule="evenodd"/><path fill="#ffffff" d="M 268.894531 165.121094 L 271.605469 165.121094 L 271.605469 175.292969 L 268.894531 175.292969 Z M 268.894531 165.121094 " fill-opacity="1" fill-rule="evenodd"/><path fill="#ffffff" d="M 278.726562 165.121094 L 281.441406 165.121094 L 281.441406 175.292969 L 278.726562 175.292969 Z M 278.726562 165.121094 " fill-opacity="1" fill-rule="evenodd"/><path fill="#ffffff" d="M 288.5625 165.121094 L 291.273438 165.121094 L 291.273438 175.292969 L 288.5625 175.292969 Z M 288.5625 165.121094 " fill-opacity="1" fill-rule="evenodd"/><path fill="#ffffff" d="M 298.394531 165.121094 L 301.109375 165.121094 L 301.109375 175.292969 L 298.394531 175.292969 Z M 298.394531 165.121094 " fill-opacity="1" fill-rule="evenodd"/><path fill="#ffffff" d="M 217.636719 135.386719 C 217.636719 138.125 215.605469 158.742188 196.589844 158.742188 C 177.570312 158.742188 175.539062 138.125 175.539062 135.386719 C 175.539062 138.125 184.964844 140.34375 196.589844 140.34375 C 208.210938 140.34375 217.636719 138.125 217.636719 135.386719 " fill-opacity="1" fill-rule="evenodd"/><path fill="#ffffff" d="M 196.589844 130.660156 C 205.777344 130.660156 213.222656 132.496094 213.222656 134.761719 C 213.222656 137.023438 205.777344 138.859375 196.589844 138.859375 C 187.398438 138.859375 179.953125 137.023438 179.953125 134.761719 C 179.953125 132.496094 187.398438 130.660156 196.589844 130.660156 M 196.589844 129.804688 C 207.699219 129.804688 216.707031 132.023438 216.707031 134.761719 C 216.707031 137.496094 207.699219 139.71875 196.589844 139.71875 C 185.476562 139.71875 176.46875 137.496094 176.46875 134.761719 C 176.46875 132.023438 185.476562 129.804688 196.589844 129.804688 Z M 196.589844 129.804688 " fill-opacity="1" fill-rule="evenodd"/><path fill="#ffffff" d="M 220.765625 138.625 C 222.972656 138.625 224.761719 140.414062 224.761719 142.621094 C 224.761719 144.828125 222.972656 146.617188 220.765625 146.617188 C 218.558594 146.617188 216.773438 144.828125 216.773438 142.621094 C 216.773438 140.414062 218.558594 138.625 220.765625 138.625 M 220.902344 136.558594 C 224.25 136.558594 226.960938 139.273438 226.960938 142.621094 C 226.960938 145.96875 224.25 148.683594 220.902344 148.683594 C 217.550781 148.683594 214.839844 145.96875 214.839844 142.621094 C 214.839844 139.273438 217.550781 136.558594 220.902344 136.558594 Z M 220.902344 136.558594 " fill-opacity="1" fill-rule="evenodd"/><path fill="#ffffff" d="M 211.53125 156.515625 C 213.859375 157.027344 215.242188 157.660156 215.242188 158.347656 C 215.242188 160.039062 206.890625 161.410156 196.589844 161.410156 C 186.289062 161.410156 177.9375 160.039062 177.9375 158.347656 C 177.9375 157.660156 179.316406 157.027344 181.644531 156.515625 C 180.539062 156.882812 179.914062 157.292969 179.914062 157.730469 C 179.914062 159.242188 187.378906 160.46875 196.585938 160.46875 C 205.792969 160.46875 213.257812 159.242188 213.257812 157.730469 C 213.257812 157.292969 212.636719 156.882812 211.53125 156.515625 " fill-opacity="1" fill-rule="evenodd"/><path fill="#ffffff" d="M 196.589844 154.871094 C 205.265625 154.871094 212.304688 156.023438 212.304688 157.449219 C 212.304688 158.011719 211.203125 158.535156 209.339844 158.957031 C 210.265625 158.648438 210.789062 158.296875 210.789062 157.925781 C 210.789062 156.628906 204.382812 155.578125 196.476562 155.578125 C 188.570312 155.578125 182.164062 156.628906 182.164062 157.925781 C 182.164062 158.234375 182.519531 158.527344 183.164062 158.792969 C 181.710938 158.402344 180.871094 157.941406 180.871094 157.449219 C 180.871094 156.023438 187.90625 154.871094 196.589844 154.871094 " fill-opacity="1" fill-rule="evenodd"/><path fill="#ffffff" d="M 196.589844 156.09375 C 203.265625 156.09375 208.679688 156.816406 208.679688 157.707031 C 208.679688 158.597656 203.265625 159.316406 196.589844 159.316406 C 189.910156 159.316406 184.496094 158.597656 184.496094 157.707031 C 184.496094 156.816406 189.910156 156.09375 196.589844 156.09375 M 196.589844 155.875 C 203.824219 155.875 209.691406 156.816406 209.691406 157.976562 C 209.691406 159.132812 203.824219 160.074219 196.589844 160.074219 C 189.351562 160.074219 183.484375 159.132812 183.484375 157.976562 C 183.484375 156.816406 189.351562 155.875 196.589844 155.875 Z M 196.589844 155.875 " fill-opacity="1" fill-rule="evenodd"/><path fill="#ffffff" d="M 190.5625 116.507812 C 184.371094 120.5625 195.464844 129.996094 190.015625 136.957031 C 197.910156 130.167969 187.984375 122.984375 190.5625 116.507812 " fill-opacity="1" fill-rule="evenodd"/><path fill="#ffffff" d="M 196.277344 116.507812 C 190.085938 120.5625 201.175781 129.996094 195.730469 136.957031 C 203.621094 130.167969 193.699219 122.984375 196.277344 116.507812 " fill-opacity="1" fill-rule="evenodd"/><path fill="#ffffff" d="M 201.988281 116.507812 C 195.796875 120.5625 206.890625 129.996094 201.441406 136.957031 C 209.335938 130.167969 199.410156 122.984375 201.988281 116.507812 " fill-opacity="1" fill-rule="evenodd"/><path fill="#ffffff" d="M 208.234375 256.460938 C 208.234375 256.460938 208.4375 255.671875 207.78125 255.105469 C 207.125 254.539062 199.125 248.113281 194.964844 243.824219 C 194.964844 243.824219 193.050781 242.066406 193.066406 241.75 C 193.082031 241.4375 194.023438 239.945312 193.445312 238.554688 C 192.867188 237.164062 186.71875 232.992188 185.164062 234.546875 C 183.609375 236.101562 187.78125 242.253906 189.171875 242.828125 C 190.566406 243.40625 192.058594 242.464844 192.371094 242.449219 C 192.683594 242.433594 194.445312 244.347656 194.445312 244.347656 C 198.738281 248.503906 205.164062 256.503906 205.730469 257.15625 C 206.296875 257.8125 207.082031 257.609375 207.082031 257.609375 C 207.921875 258.472656 209.097656 257.296875 208.234375 256.460938 " fill-opacity="1" fill-rule="evenodd"/><path fill="#ffffff" d="M 185.378906 257.613281 C 185.378906 257.613281 186.164062 257.816406 186.730469 257.160156 C 187.296875 256.507812 193.722656 248.507812 198.011719 244.347656 C 198.011719 244.347656 199.773438 242.429688 200.085938 242.449219 C 200.398438 242.464844 201.890625 243.40625 203.285156 242.828125 C 203.429688 242.765625 203.605469 242.644531 203.804688 242.472656 C 204.765625 241.402344 205.683594 240.386719 206.558594 239.414062 C 207.394531 238.488281 208.191406 237.605469 208.953125 236.757812 C 209.097656 236.597656 209.089844 236.34375 208.941406 236.195312 C 208.789062 236.042969 208.546875 236.050781 208.402344 236.207031 C 207.625 237.042969 206.816406 237.914062 205.96875 238.824219 L 203.457031 241.527344 L 203.519531 241.460938 C 203.324219 241.667969 203.023438 241.695312 202.851562 241.519531 C 202.675781 241.347656 202.691406 241.039062 202.886719 240.835938 L 202.882812 240.839844 L 202.886719 240.835938 L 205.378906 238.234375 C 206.238281 237.335938 207.0625 236.476562 207.851562 235.65625 C 208 235.5 208 235.25 207.847656 235.101562 C 207.695312 234.949219 207.449219 234.949219 207.300781 235.105469 C 206.5 235.914062 205.664062 236.761719 204.789062 237.644531 L 202.21875 240.25 L 202.261719 240.203125 C 202.058594 240.40625 201.757812 240.425781 201.582031 240.253906 L 201.582031 240.25 C 201.410156 240.078125 201.429688 239.773438 201.632812 239.574219 L 204.199219 237.054688 C 205.085938 236.183594 205.933594 235.351562 206.746094 234.554688 C 206.902344 234.402344 206.90625 234.15625 206.753906 234.007812 C 206.605469 233.855469 206.351562 233.851562 206.195312 234.003906 C 205.371094 234.789062 204.511719 235.609375 203.609375 236.46875 L 201 238.949219 L 200.996094 238.957031 L 201 238.949219 C 200.792969 239.140625 200.484375 239.15625 200.3125 238.984375 C 200.136719 238.808594 200.164062 238.511719 200.371094 238.316406 L 203.019531 235.875 C 203.933594 235.03125 204.808594 234.226562 205.644531 233.453125 C 205.804688 233.304688 205.808594 233.066406 205.660156 232.914062 C 205.507812 232.761719 205.253906 232.757812 205.09375 232.902344 C 204.246094 233.660156 203.359375 234.457031 202.429688 235.289062 C 201.457031 236.160156 200.433594 237.074219 199.363281 238.035156 C 199.1875 238.230469 199.066406 238.410156 199.007812 238.554688 C 198.429688 239.945312 199.371094 241.4375 199.386719 241.75 C 199.40625 242.0625 197.488281 243.824219 197.488281 243.824219 C 193.332031 248.117188 185.332031 254.542969 184.679688 255.109375 C 184.023438 255.679688 184.226562 256.464844 184.226562 256.464844 C 183.363281 257.304688 184.542969 258.480469 185.378906 257.613281 " fill-opacity="1" fill-rule="evenodd"/><g fill="#ffffff" fill-opacity="1"><g transform="translate(28.006053, 217.709225)"><g><path d="M 34.84375 -14.015625 L 35.625 -14.015625 C 34.90625 -10.960938 33.863281 -8.320312 32.5 -6.09375 C 31.144531 -3.875 29.421875 -2.164062 27.328125 -0.96875 C 25.242188 0.226562 22.742188 0.828125 19.828125 0.828125 C 16.316406 0.828125 13.253906 0.078125 10.640625 -1.421875 C 8.023438 -2.921875 6.007812 -5.003906 4.59375 -7.671875 C 3.175781 -10.335938 2.46875 -13.414062 2.46875 -16.90625 C 2.46875 -19.519531 2.914062 -21.867188 3.8125 -23.953125 C 4.707031 -26.046875 5.953125 -27.828125 7.546875 -29.296875 C 9.140625 -30.765625 10.972656 -31.882812 13.046875 -32.65625 C 15.117188 -33.425781 17.335938 -33.8125 19.703125 -33.8125 C 23.203125 -33.8125 26.140625 -32.941406 28.515625 -31.203125 C 30.890625 -29.472656 32.789062 -27.125 34.21875 -24.15625 L 27.671875 -22.390625 C 27.367188 -24.398438 26.882812 -26.203125 26.21875 -27.796875 C 25.5625 -29.390625 24.703125 -30.644531 23.640625 -31.5625 C 22.585938 -32.488281 21.273438 -32.953125 19.703125 -32.953125 C 18.140625 -32.953125 16.757812 -32.546875 15.5625 -31.734375 C 14.363281 -30.921875 13.34375 -29.796875 12.5 -28.359375 C 11.664062 -26.929688 11.035156 -25.273438 10.609375 -23.390625 C 10.191406 -21.515625 9.984375 -19.503906 9.984375 -17.359375 C 9.984375 -15.128906 10.210938 -13.039062 10.671875 -11.09375 C 11.140625 -9.144531 11.851562 -7.425781 12.8125 -5.9375 C 13.78125 -4.457031 15.003906 -3.296875 16.484375 -2.453125 C 17.972656 -1.617188 19.75 -1.203125 21.8125 -1.203125 C 25.082031 -1.203125 27.835938 -2.304688 30.078125 -4.515625 C 32.316406 -6.722656 33.90625 -9.890625 34.84375 -14.015625 Z M 34.84375 -14.015625 "/></g></g></g><g fill="#ffffff" fill-opacity="1"><g transform="translate(64.450215, 217.709225)"><g><path d="M 26.71875 -4.90625 C 27.019531 -3.800781 27.304688 -2.910156 27.578125 -2.234375 C 27.859375 -1.566406 28.21875 -0.820312 28.65625 0 L 20.25 0 C 20.21875 -0.6875 20.164062 -1.269531 20.09375 -1.75 C 20.03125 -2.226562 19.9375 -2.707031 19.8125 -3.1875 C 19.6875 -3.675781 19.53125 -4.25 19.34375 -4.90625 L 17.4375 -11.796875 L 6.5625 -11.796875 L 4.578125 -4.5 C 4.378906 -3.726562 4.191406 -3.023438 4.015625 -2.390625 C 3.835938 -1.753906 3.722656 -0.957031 3.671875 0 L 2.0625 0 C 2.550781 -1.019531 2.890625 -1.820312 3.078125 -2.40625 C 3.273438 -3 3.472656 -3.679688 3.671875 -4.453125 L 10.6875 -30.0625 C 10.820312 -30.632812 10.898438 -31.113281 10.921875 -31.5 C 10.953125 -31.882812 10.875 -32.378906 10.6875 -32.984375 L 18.96875 -32.984375 Z M 6.796875 -12.65625 L 17.1875 -12.65625 L 11.953125 -31.546875 Z M 6.796875 -12.65625 "/></g></g></g><g fill="#ffffff" fill-opacity="1"><g transform="translate(94.33934, 217.709225)"><g><path d="M 2.890625 -32.984375 L 26.140625 -32.984375 L 23.75 -29.640625 C 22.039062 -30.691406 20.390625 -31.367188 18.796875 -31.671875 C 17.203125 -31.972656 15.828125 -32.125 14.671875 -32.125 L 10.3125 -32.125 L 10.3125 -16.453125 L 12.625 -16.453125 C 13.71875 -16.453125 14.882812 -16.472656 16.125 -16.515625 C 17.363281 -16.554688 18.941406 -16.671875 20.859375 -16.859375 L 20.859375 -15.171875 C 18.941406 -15.390625 17.363281 -15.515625 16.125 -15.546875 C 14.882812 -15.578125 13.71875 -15.59375 12.625 -15.59375 L 10.3125 -15.59375 L 10.3125 -8.828125 C 10.3125 -7.554688 10.320312 -6.453125 10.34375 -5.515625 C 10.375 -4.585938 10.421875 -3.695312 10.484375 -2.84375 C 10.554688 -1.988281 10.648438 -1.039062 10.765625 0 L 2.890625 0 C 3.023438 -1.039062 3.125 -1.988281 3.1875 -2.84375 C 3.257812 -3.695312 3.304688 -4.585938 3.328125 -5.515625 C 3.359375 -6.453125 3.375 -7.554688 3.375 -8.828125 L 3.375 -24.15625 C 3.375 -25.445312 3.359375 -26.550781 3.328125 -27.46875 C 3.304688 -28.394531 3.257812 -29.285156 3.1875 -30.140625 C 3.125 -30.992188 3.023438 -31.941406 2.890625 -32.984375 Z M 2.890625 -32.984375 "/></g></g></g><g fill="#ffffff" fill-opacity="1"><g transform="translate(120.88911, 217.709225)"><g><path d="M 2.890625 -32.984375 L 25.3125 -32.984375 L 22.921875 -29.640625 C 21.222656 -30.691406 19.578125 -31.367188 17.984375 -31.671875 C 16.390625 -31.972656 15.015625 -32.125 13.859375 -32.125 L 10.3125 -32.125 L 10.3125 -17.8125 L 12.5 -17.8125 C 13.59375 -17.8125 14.757812 -17.832031 16 -17.875 C 17.238281 -17.914062 18.816406 -18.03125 20.734375 -18.21875 L 20.734375 -16.53125 C 18.816406 -16.75 17.238281 -16.875 16 -16.90625 C 14.757812 -16.9375 13.59375 -16.953125 12.5 -16.953125 L 10.3125 -16.953125 L 10.3125 -0.859375 L 13.9375 -0.859375 C 15.394531 -0.859375 16.703125 -0.914062 17.859375 -1.03125 C 19.015625 -1.144531 20.238281 -1.363281 21.53125 -1.6875 C 22.820312 -2.019531 24.382812 -2.53125 26.21875 -3.21875 L 24.703125 0 L 2.890625 0 C 3.023438 -1.039062 3.125 -1.988281 3.1875 -2.84375 C 3.257812 -3.695312 3.304688 -4.585938 3.328125 -5.515625 C 3.359375 -6.453125 3.375 -7.554688 3.375 -8.828125 L 3.375 -24.15625 C 3.375 -25.445312 3.359375 -26.550781 3.328125 -27.46875 C 3.304688 -28.394531 3.257812 -29.285156 3.1875 -30.140625 C 3.125 -30.992188 3.023438 -31.941406 2.890625 -32.984375 Z M 2.890625 -32.984375 "/></g></g></g><g fill="#ffffff" fill-opacity="1"><g transform="translate(147.52133, 217.709225)"><g/></g></g><g fill="#ffffff" fill-opacity="1"><g transform="translate(158.693566, 217.709225)"><g><path d="M 2.890625 0 C 2.992188 -1.039062 3.078125 -1.988281 3.140625 -2.84375 C 3.210938 -3.695312 3.265625 -4.585938 3.296875 -5.515625 C 3.328125 -6.453125 3.34375 -7.554688 3.34375 -8.828125 L 3.34375 -24.15625 C 3.34375 -25.445312 3.328125 -26.550781 3.296875 -27.46875 C 3.265625 -28.394531 3.210938 -29.285156 3.140625 -30.140625 C 3.078125 -30.992188 2.992188 -31.941406 2.890625 -32.984375 L 14.0625 -32.984375 C 17.71875 -32.984375 20.890625 -32.382812 23.578125 -31.1875 C 26.273438 -30 28.359375 -28.1875 29.828125 -25.75 C 31.304688 -23.320312 32.046875 -20.238281 32.046875 -16.5 C 32.046875 -12.925781 31.320312 -9.914062 29.875 -7.46875 C 28.425781 -5.019531 26.363281 -3.160156 23.6875 -1.890625 C 21.007812 -0.628906 17.800781 0 14.0625 0 Z M 13.8125 -0.859375 C 15.957031 -0.859375 17.832031 -1.441406 19.4375 -2.609375 C 21.050781 -3.785156 22.300781 -5.535156 23.1875 -7.859375 C 24.082031 -10.179688 24.53125 -13.0625 24.53125 -16.5 C 24.53125 -20.070312 24.082031 -23.007812 23.1875 -25.3125 C 22.300781 -27.625 21.050781 -29.335938 19.4375 -30.453125 C 17.832031 -31.566406 15.957031 -32.125 13.8125 -32.125 L 10.265625 -32.125 L 10.265625 -0.859375 Z M 13.8125 -0.859375 "/></g></g></g><g fill="#ffffff" fill-opacity="1"><g transform="translate(192.375541, 217.709225)"><g><path d="M 5.9375 -27.546875 L 2.890625 -30.59375 L 5.9375 -33.640625 L 8.984375 -30.59375 L 3.21875 -20.859375 L 2.890625 -21.1875 Z M 5.9375 -27.546875 "/></g></g></g><g fill="#ffffff" fill-opacity="1"><g transform="translate(203.424101, 217.709225)"><g><path d="M 29.734375 -4.40625 C 30.441406 -3.5 31.09375 -2.738281 31.6875 -2.125 C 32.28125 -1.507812 33.082031 -0.800781 34.09375 0 L 23.875 0 C 23.625 -0.550781 23.367188 -1.023438 23.109375 -1.421875 C 22.847656 -1.816406 22.550781 -2.238281 22.21875 -2.6875 C 21.894531 -3.144531 21.472656 -3.71875 20.953125 -4.40625 L 12.078125 -15.75 L 10.265625 -13.890625 L 10.265625 -8.828125 C 10.265625 -7.554688 10.273438 -6.453125 10.296875 -5.515625 C 10.328125 -4.585938 10.378906 -3.695312 10.453125 -2.84375 C 10.523438 -1.988281 10.613281 -1.039062 10.71875 0 L 2.890625 0 C 2.992188 -1.039062 3.078125 -1.988281 3.140625 -2.84375 C 3.210938 -3.695312 3.265625 -4.585938 3.296875 -5.515625 C 3.328125 -6.453125 3.34375 -7.554688 3.34375 -8.828125 L 3.34375 -24.15625 C 3.34375 -25.445312 3.328125 -26.550781 3.296875 -27.46875 C 3.265625 -28.394531 3.210938 -29.285156 3.140625 -30.140625 C 3.078125 -30.992188 2.992188 -31.941406 2.890625 -32.984375 L 10.71875 -32.984375 C 10.613281 -31.941406 10.523438 -30.992188 10.453125 -30.140625 C 10.378906 -29.285156 10.328125 -28.394531 10.296875 -27.46875 C 10.273438 -26.550781 10.265625 -25.445312 10.265625 -24.15625 L 10.265625 -15.140625 L 23.546875 -28.703125 C 24.367188 -29.523438 25.0625 -30.242188 25.625 -30.859375 C 26.1875 -31.484375 26.726562 -32.191406 27.25 -32.984375 L 29.40625 -32.984375 C 28.382812 -32.191406 27.539062 -31.484375 26.875 -30.859375 C 26.21875 -30.242188 25.519531 -29.566406 24.78125 -28.828125 L 17.078125 -20.859375 Z M 29.734375 -4.40625 "/></g></g></g><g fill="#ffffff" fill-opacity="1"><g transform="translate(237.930599, 217.709225)"><g><path d="M 2.890625 -32.984375 L 10.71875 -32.984375 C 10.613281 -31.941406 10.523438 -30.992188 10.453125 -30.140625 C 10.378906 -29.285156 10.328125 -28.394531 10.296875 -27.46875 C 10.273438 -26.550781 10.265625 -25.445312 10.265625 -24.15625 L 10.265625 -8.828125 C 10.265625 -7.554688 10.273438 -6.453125 10.296875 -5.515625 C 10.328125 -4.585938 10.378906 -3.695312 10.453125 -2.84375 C 10.523438 -1.988281 10.613281 -1.039062 10.71875 0 L 2.890625 0 C 2.992188 -1.039062 3.078125 -1.988281 3.140625 -2.84375 C 3.210938 -3.695312 3.265625 -4.585938 3.296875 -5.515625 C 3.328125 -6.453125 3.34375 -7.554688 3.34375 -8.828125 L 3.34375 -24.15625 C 3.34375 -25.445312 3.328125 -26.550781 3.296875 -27.46875 C 3.265625 -28.394531 3.210938 -29.285156 3.140625 -30.140625 C 3.078125 -30.992188 2.992188 -31.941406 2.890625 -32.984375 Z M 2.890625 -32.984375 "/></g></g></g><g fill="#ffffff" fill-opacity="1"><g transform="translate(250.710673, 217.709225)"><g><path d="M 26.1875 -7.671875 C 26.875 -5.992188 27.5625 -4.648438 28.25 -3.640625 C 28.9375 -2.640625 29.710938 -1.910156 30.578125 -1.453125 C 31.441406 -1.003906 32.492188 -0.78125 33.734375 -0.78125 L 33.734375 0 C 31.085938 0 28.796875 -0.175781 26.859375 -0.53125 C 24.921875 -0.894531 23.304688 -1.601562 22.015625 -2.65625 C 20.722656 -3.71875 19.722656 -5.289062 19.015625 -7.375 C 18.265625 -9.632812 17.539062 -11.320312 16.84375 -12.4375 C 16.144531 -13.550781 15.351562 -14.296875 14.46875 -14.671875 C 13.59375 -15.054688 12.492188 -15.25 11.171875 -15.25 L 10.265625 -15.25 L 10.265625 -8.828125 C 10.265625 -7.554688 10.273438 -6.453125 10.296875 -5.515625 C 10.328125 -4.585938 10.378906 -3.695312 10.453125 -2.84375 C 10.523438 -1.988281 10.613281 -1.039062 10.71875 0 L 2.890625 0 C 2.992188 -1.039062 3.078125 -1.988281 3.140625 -2.84375 C 3.210938 -3.695312 3.265625 -4.585938 3.296875 -5.515625 C 3.328125 -6.453125 3.34375 -7.554688 3.34375 -8.828125 L 3.34375 -24.15625 C 3.34375 -25.445312 3.328125 -26.550781 3.296875 -27.46875 C 3.265625 -28.394531 3.210938 -29.285156 3.140625 -30.140625 C 3.078125 -30.992188 2.992188 -31.941406 2.890625 -32.984375 L 13.078125 -32.984375 C 15.054688 -32.984375 16.9375 -32.859375 18.71875 -32.609375 C 20.507812 -32.367188 22.101562 -31.929688 23.5 -31.296875 C 24.90625 -30.660156 26.003906 -29.765625 26.796875 -28.609375 C 27.597656 -27.460938 28 -25.96875 28 -24.125 C 28 -22.0625 27.492188 -20.425781 26.484375 -19.21875 C 25.484375 -18.007812 24.125 -17.109375 22.40625 -16.515625 C 20.6875 -15.921875 18.769531 -15.539062 16.65625 -15.375 C 18.6875 -15.019531 20.523438 -14.269531 22.171875 -13.125 C 23.828125 -11.988281 25.164062 -10.171875 26.1875 -7.671875 Z M 10.265625 -16.125 L 12.953125 -16.125 C 14.378906 -16.125 15.695312 -16.347656 16.90625 -16.796875 C 18.113281 -17.253906 19.085938 -18.0625 19.828125 -19.21875 C 20.578125 -20.375 20.953125 -22.007812 20.953125 -24.125 C 20.953125 -26.238281 20.578125 -27.875 19.828125 -29.03125 C 19.085938 -30.1875 18.113281 -30.988281 16.90625 -31.4375 C 15.695312 -31.894531 14.378906 -32.125 12.953125 -32.125 L 10.265625 -32.125 Z M 10.265625 -16.125 "/></g></g></g><g fill="#ffffff" fill-opacity="1"><g transform="translate(285.01104, 217.709225)"><g><path d="M 29.734375 -4.40625 C 30.441406 -3.5 31.09375 -2.738281 31.6875 -2.125 C 32.28125 -1.507812 33.082031 -0.800781 34.09375 0 L 23.875 0 C 23.625 -0.550781 23.367188 -1.023438 23.109375 -1.421875 C 22.847656 -1.816406 22.550781 -2.238281 22.21875 -2.6875 C 21.894531 -3.144531 21.472656 -3.71875 20.953125 -4.40625 L 12.078125 -15.75 L 10.265625 -13.890625 L 10.265625 -8.828125 C 10.265625 -7.554688 10.273438 -6.453125 10.296875 -5.515625 C 10.328125 -4.585938 10.378906 -3.695312 10.453125 -2.84375 C 10.523438 -1.988281 10.613281 -1.039062 10.71875 0 L 2.890625 0 C 2.992188 -1.039062 3.078125 -1.988281 3.140625 -2.84375 C 3.210938 -3.695312 3.265625 -4.585938 3.296875 -5.515625 C 3.328125 -6.453125 3.34375 -7.554688 3.34375 -8.828125 L 3.34375 -24.15625 C 3.34375 -25.445312 3.328125 -26.550781 3.296875 -27.46875 C 3.265625 -28.394531 3.210938 -29.285156 3.140625 -30.140625 C 3.078125 -30.992188 2.992188 -31.941406 2.890625 -32.984375 L 10.71875 -32.984375 C 10.613281 -31.941406 10.523438 -30.992188 10.453125 -30.140625 C 10.378906 -29.285156 10.328125 -28.394531 10.296875 -27.46875 C 10.273438 -26.550781 10.265625 -25.445312 10.265625 -24.15625 L 10.265625 -15.140625 L 23.546875 -28.703125 C 24.367188 -29.523438 25.0625 -30.242188 25.625 -30.859375 C 26.1875 -31.484375 26.726562 -32.191406 27.25 -32.984375 L 29.40625 -32.984375 C 28.382812 -32.191406 27.539062 -31.484375 26.875 -30.859375 C 26.21875 -30.242188 25.519531 -29.566406 24.78125 -28.828125 L 17.078125 -20.859375 Z M 29.734375 -4.40625 "/></g></g></g><g fill="#ffffff" fill-opacity="1"><g transform="translate(319.517538, 217.709225)"><g><path d="M 2.890625 -32.984375 L 25.3125 -32.984375 L 22.921875 -29.640625 C 21.222656 -30.691406 19.578125 -31.367188 17.984375 -31.671875 C 16.390625 -31.972656 15.015625 -32.125 13.859375 -32.125 L 10.3125 -32.125 L 10.3125 -17.8125 L 12.5 -17.8125 C 13.59375 -17.8125 14.757812 -17.832031 16 -17.875 C 17.238281 -17.914062 18.816406 -18.03125 20.734375 -18.21875 L 20.734375 -16.53125 C 18.816406 -16.75 17.238281 -16.875 16 -16.90625 C 14.757812 -16.9375 13.59375 -16.953125 12.5 -16.953125 L 10.3125 -16.953125 L 10.3125 -0.859375 L 13.9375 -0.859375 C 15.394531 -0.859375 16.703125 -0.914062 17.859375 -1.03125 C 19.015625 -1.144531 20.238281 -1.363281 21.53125 -1.6875 C 22.820312 -2.019531 24.382812 -2.53125 26.21875 -3.21875 L 24.703125 0 L 2.890625 0 C 3.023438 -1.039062 3.125 -1.988281 3.1875 -2.84375 C 3.257812 -3.695312 3.304688 -4.585938 3.328125 -5.515625 C 3.359375 -6.453125 3.375 -7.554688 3.375 -8.828125 L 3.375 -24.15625 C 3.375 -25.445312 3.359375 -26.550781 3.328125 -27.46875 C 3.304688 -28.394531 3.257812 -29.285156 3.1875 -30.140625 C 3.125 -30.992188 3.023438 -31.941406 2.890625 -32.984375 Z M 2.890625 -32.984375 "/></g></g></g><g fill="#ffffff" fill-opacity="1"><g transform="translate(111.682271, 253.687554)"><g><path d="M 8.640625 0.21875 L 5.9375 -2.640625 L 4.53125 -1.296875 L 6.9375 1.25 L 6.140625 2 L 3.734375 -0.546875 L 2.296875 0.828125 L 5.09375 3.78125 L 4.296875 4.53125 L 0.65625 0.6875 L 5.890625 -4.28125 L 9.4375 -0.53125 Z M 8.640625 0.21875 "/></g></g></g><g fill="#ffffff" fill-opacity="1"><g transform="translate(119.681158, 261.733212)"><g><path d="M 7.21875 -3.421875 C 7.925781 -2.828125 8.410156 -2.097656 8.671875 -1.234375 L 7.609375 -0.734375 C 7.316406 -1.546875 6.914062 -2.171875 6.40625 -2.609375 C 6.132812 -2.835938 5.875 -2.972656 5.625 -3.015625 C 5.375 -3.054688 5.171875 -2.984375 5.015625 -2.796875 C 4.867188 -2.617188 4.8125 -2.398438 4.84375 -2.140625 C 4.882812 -1.878906 4.988281 -1.625 5.15625 -1.375 C 5.332031 -1.132812 5.507812 -0.859375 5.6875 -0.546875 C 5.863281 -0.242188 6.019531 0.0507812 6.15625 0.34375 C 6.289062 0.644531 6.335938 0.960938 6.296875 1.296875 C 6.265625 1.628906 6.117188 1.953125 5.859375 2.265625 C 5.453125 2.742188 4.929688 2.960938 4.296875 2.921875 C 3.660156 2.890625 3.039062 2.617188 2.4375 2.109375 C 2.007812 1.753906 1.664062 1.332031 1.40625 0.84375 C 1.144531 0.351562 0.984375 -0.148438 0.921875 -0.671875 L 2 -1.140625 C 2.0625 -0.648438 2.203125 -0.195312 2.421875 0.21875 C 2.640625 0.644531 2.894531 0.984375 3.1875 1.234375 C 3.519531 1.515625 3.820312 1.671875 4.09375 1.703125 C 4.375 1.734375 4.609375 1.644531 4.796875 1.4375 C 4.953125 1.25 5.007812 1.03125 4.96875 0.78125 C 4.9375 0.53125 4.832031 0.28125 4.65625 0.03125 C 4.488281 -0.21875 4.3125 -0.492188 4.125 -0.796875 C 3.945312 -1.097656 3.785156 -1.390625 3.640625 -1.671875 C 3.492188 -1.960938 3.4375 -2.273438 3.46875 -2.609375 C 3.507812 -2.953125 3.660156 -3.28125 3.921875 -3.59375 C 4.304688 -4.050781 4.800781 -4.265625 5.40625 -4.234375 C 6.007812 -4.203125 6.613281 -3.929688 7.21875 -3.421875 Z M 7.21875 -3.421875 "/></g></g></g><g fill="#ffffff" fill-opacity="1"><g transform="translate(128.24628, 268.605166)"><g><path d="M 8.296875 -1.796875 L 6.40625 -3.078125 L 2.984375 2 L 1.96875 1.328125 L 5.390625 -3.75 L 3.5 -5.03125 L 4.109375 -5.9375 L 8.90625 -2.703125 Z M 8.296875 -1.796875 "/></g></g></g><g fill="#ffffff" fill-opacity="1"><g transform="translate(137.130034, 274.315996)"><g><path d="M 5.734375 1.140625 L 2.5 -0.53125 L 1.140625 0.59375 L 0.015625 0 L 6.15625 -4.9375 L 7.25 -4.375 L 6.75 3.484375 L 5.59375 2.890625 Z M 5.8125 -0.0625 L 6.078125 -3.53125 L 3.40625 -1.3125 Z M 5.8125 -0.0625 "/></g></g></g><g fill="#ffffff" fill-opacity="1"><g transform="translate(148.114058, 279.671839)"><g><path d="M 3.40625 -6.4375 L 6.34375 -5.34375 C 7.039062 -5.082031 7.535156 -4.726562 7.828125 -4.28125 C 8.128906 -3.832031 8.179688 -3.34375 7.984375 -2.8125 C 7.835938 -2.4375 7.609375 -2.148438 7.296875 -1.953125 C 6.992188 -1.765625 6.640625 -1.695312 6.234375 -1.75 C 6.648438 -1.5 6.929688 -1.175781 7.078125 -0.78125 C 7.234375 -0.382812 7.222656 0.0390625 7.046875 0.5 C 6.828125 1.082031 6.4375 1.457031 5.875 1.625 C 5.320312 1.789062 4.660156 1.734375 3.890625 1.453125 L 0.890625 0.328125 Z M 4.171875 -5 L 3.515625 -3.21875 L 5.25 -2.5625 C 5.613281 -2.425781 5.925781 -2.398438 6.1875 -2.484375 C 6.457031 -2.566406 6.644531 -2.75 6.75 -3.03125 C 6.851562 -3.3125 6.828125 -3.566406 6.671875 -3.796875 C 6.523438 -4.023438 6.269531 -4.207031 5.90625 -4.34375 Z M 3.125 -2.203125 L 2.40625 -0.265625 L 4.140625 0.390625 C 4.597656 0.554688 4.976562 0.601562 5.28125 0.53125 C 5.59375 0.457031 5.8125 0.257812 5.9375 -0.0625 C 6.039062 -0.363281 6 -0.644531 5.8125 -0.90625 C 5.625 -1.164062 5.304688 -1.378906 4.859375 -1.546875 Z M 3.125 -2.203125 "/></g></g></g><g fill="#ffffff" fill-opacity="1"><g transform="translate(159.323109, 283.524619)"><g><path d="M 2.375 -0.546875 L 5.40625 0.21875 L 5.140625 1.296875 L 0.921875 0.234375 L 2.6875 -6.765625 L 3.875 -6.46875 Z M 2.375 -0.546875 "/></g></g></g><g fill="#ffffff" fill-opacity="1"><g transform="translate(169.087687, 285.720757)"><g><path d="M 2.140625 0.34375 L 0.9375 0.15625 L 2.078125 -6.96875 L 3.28125 -6.78125 Z M 2.140625 0.34375 "/></g></g></g><g fill="#ffffff" fill-opacity="1"><g transform="translate(176.64866, 286.788155)"><g><path d="M 3.796875 -7.03125 C 4.710938 -6.976562 5.53125 -6.679688 6.25 -6.140625 L 5.6875 -5.09375 C 4.96875 -5.59375 4.28125 -5.863281 3.625 -5.90625 C 3.257812 -5.925781 2.96875 -5.878906 2.75 -5.765625 C 2.53125 -5.648438 2.410156 -5.472656 2.390625 -5.234375 C 2.378906 -4.992188 2.460938 -4.78125 2.640625 -4.59375 C 2.828125 -4.40625 3.0625 -4.265625 3.34375 -4.171875 C 3.632812 -4.078125 3.9375 -3.957031 4.25 -3.8125 C 4.570312 -3.664062 4.875 -3.519531 5.15625 -3.375 C 5.4375 -3.226562 5.660156 -3.003906 5.828125 -2.703125 C 6.003906 -2.410156 6.078125 -2.0625 6.046875 -1.65625 C 6.015625 -1.019531 5.734375 -0.53125 5.203125 -0.1875 C 4.671875 0.15625 4.007812 0.300781 3.21875 0.25 C 2.664062 0.21875 2.132812 0.0820312 1.625 -0.15625 C 1.125 -0.40625 0.695312 -0.71875 0.34375 -1.09375 L 0.9375 -2.109375 C 1.28125 -1.742188 1.664062 -1.457031 2.09375 -1.25 C 2.519531 -1.039062 2.925781 -0.925781 3.3125 -0.90625 C 3.726562 -0.875 4.054688 -0.925781 4.296875 -1.0625 C 4.546875 -1.195312 4.679688 -1.40625 4.703125 -1.6875 C 4.722656 -1.925781 4.640625 -2.132812 4.453125 -2.3125 C 4.273438 -2.5 4.046875 -2.640625 3.765625 -2.734375 C 3.484375 -2.835938 3.175781 -2.957031 2.84375 -3.09375 C 2.519531 -3.226562 2.21875 -3.363281 1.9375 -3.5 C 1.65625 -3.644531 1.425781 -3.863281 1.25 -4.15625 C 1.070312 -4.445312 1 -4.796875 1.03125 -5.203125 C 1.0625 -5.804688 1.332031 -6.273438 1.84375 -6.609375 C 2.351562 -6.941406 3.003906 -7.082031 3.796875 -7.03125 Z M 3.796875 -7.03125 "/></g></g></g><g fill="#ffffff" fill-opacity="1"><g transform="translate(187.659585, 287.276837)"><g><path d="M 7.1875 -0.390625 L 5.96875 -0.328125 L 5.8125 -3.3125 L 2.015625 -3.109375 L 2.171875 -0.125 L 0.953125 -0.046875 L 0.5625 -7.25 L 1.78125 -7.328125 L 1.953125 -4.203125 L 5.75 -4.40625 L 5.578125 -7.53125 L 6.796875 -7.59375 Z M 7.1875 -0.390625 "/></g></g></g><g fill="#ffffff" fill-opacity="1"><g transform="translate(200.384959, 286.256662)"><g><path d="M 4.9375 -7.09375 L 1.0625 -6.40625 L 1.40625 -4.484375 L 4.859375 -5.109375 L 5.0625 -4.03125 L 1.609375 -3.40625 L 1.953125 -1.453125 L 5.953125 -2.171875 L 6.140625 -1.09375 L 0.9375 -0.171875 L -0.328125 -7.28125 L 4.75 -8.171875 Z M 4.9375 -7.09375 "/></g></g></g><g fill="#ffffff" fill-opacity="1"><g transform="translate(211.539686, 284.029924)"><g><path d="M -1.203125 -7.1875 L 1.625 -8.046875 C 2.664062 -8.359375 3.617188 -8.289062 4.484375 -7.84375 C 5.359375 -7.40625 5.945312 -6.6875 6.25 -5.6875 C 6.5625 -4.6875 6.476562 -3.753906 6 -2.890625 C 5.519531 -2.035156 4.753906 -1.445312 3.703125 -1.125 L 0.90625 -0.28125 Z M 0.296875 -6.5 L 1.765625 -1.6875 L 3.453125 -2.203125 C 4.128906 -2.398438 4.625 -2.789062 4.9375 -3.375 C 5.25 -3.96875 5.296875 -4.613281 5.078125 -5.3125 C 4.867188 -6.007812 4.460938 -6.515625 3.859375 -6.828125 C 3.253906 -7.148438 2.613281 -7.207031 1.9375 -7 Z M 0.296875 -6.5 "/></g></g></g><g fill="#ffffff" fill-opacity="1"><g transform="translate(223.409988, 280.033619)"><g/></g></g><g fill="#ffffff" fill-opacity="1"><g transform="translate(229.976147, 277.156827)"><g><path d="M -0.765625 -7.8125 C -0.148438 -8.132812 0.414062 -8.25 0.9375 -8.15625 C 1.46875 -8.0625 1.859375 -7.769531 2.109375 -7.28125 C 2.410156 -6.71875 2.394531 -5.8125 2.0625 -4.5625 L 1.328125 -1.9375 L 4.4375 -3.578125 L 4.953125 -2.609375 L 0.421875 -0.21875 L 0 -1 L 1.015625 -4.765625 C 1.265625 -5.566406 1.289062 -6.15625 1.09375 -6.53125 C 0.957031 -6.789062 0.753906 -6.941406 0.484375 -6.984375 C 0.210938 -7.023438 -0.0859375 -6.957031 -0.421875 -6.78125 C -0.992188 -6.476562 -1.429688 -5.910156 -1.734375 -5.078125 L -2.609375 -5.671875 C -2.179688 -6.679688 -1.566406 -7.394531 -0.765625 -7.8125 Z M -0.765625 -7.8125 "/></g></g></g><g fill="#ffffff" fill-opacity="1"><g transform="translate(239.289424, 271.998802)"><g><path d="M -1.125 -8 C -0.3125 -8.550781 0.488281 -8.710938 1.28125 -8.484375 C 2.070312 -8.265625 2.796875 -7.671875 3.453125 -6.703125 C 4.109375 -5.734375 4.394531 -4.835938 4.3125 -4.015625 C 4.226562 -3.203125 3.78125 -2.519531 2.96875 -1.96875 C 2.144531 -1.414062 1.335938 -1.25 0.546875 -1.46875 C -0.242188 -1.695312 -0.96875 -2.296875 -1.625 -3.265625 C -2.28125 -4.234375 -2.566406 -5.125 -2.484375 -5.9375 C -2.398438 -6.757812 -1.945312 -7.445312 -1.125 -8 Z M -0.578125 -7.203125 C -1.578125 -6.523438 -1.570312 -5.445312 -0.5625 -3.96875 C 0.4375 -2.488281 1.4375 -2.085938 2.4375 -2.765625 C 3.4375 -3.453125 3.429688 -4.535156 2.421875 -6.015625 C 1.421875 -7.492188 0.421875 -7.890625 -0.578125 -7.203125 Z M -0.578125 -7.203125 "/></g></g></g><g fill="#ffffff" fill-opacity="1"><g transform="translate(248.809105, 265.187292)"><g><path d="M -2.484375 -7.453125 C -1.960938 -7.898438 -1.429688 -8.132812 -0.890625 -8.15625 C -0.359375 -8.175781 0.0859375 -7.976562 0.453125 -7.5625 C 0.867188 -7.082031 1.050781 -6.203125 1 -4.921875 L 0.859375 -2.1875 L 3.53125 -4.46875 L 4.25 -3.640625 L 0.359375 -0.3125 L -0.21875 -0.984375 L -0.0625 -4.875 C -0.0078125 -5.707031 -0.125 -6.289062 -0.40625 -6.625 C -0.59375 -6.84375 -0.816406 -6.941406 -1.078125 -6.921875 C -1.347656 -6.898438 -1.625 -6.769531 -1.90625 -6.53125 C -2.40625 -6.101562 -2.710938 -5.441406 -2.828125 -4.546875 L -3.796875 -4.953125 C -3.609375 -6.023438 -3.171875 -6.859375 -2.484375 -7.453125 Z M -2.484375 -7.453125 "/></g></g></g><g fill="#ffffff" fill-opacity="1"><g transform="translate(256.715664, 258.087181)"><g><path d="M -3.265625 -7.140625 C -2.796875 -7.640625 -2.296875 -7.929688 -1.765625 -8.015625 C -1.234375 -8.097656 -0.765625 -7.945312 -0.359375 -7.5625 C 0.0976562 -7.125 0.375 -6.265625 0.46875 -4.984375 L 0.625 -2.265625 L 3.03125 -4.828125 L 3.828125 -4.078125 L 0.328125 -0.34375 L -0.328125 -0.953125 L -0.59375 -4.859375 C -0.625 -5.679688 -0.796875 -6.238281 -1.109375 -6.53125 C -1.316406 -6.726562 -1.550781 -6.804688 -1.8125 -6.765625 C -2.082031 -6.722656 -2.34375 -6.5625 -2.59375 -6.28125 C -3.039062 -5.800781 -3.273438 -5.117188 -3.296875 -4.234375 L -4.3125 -4.53125 C -4.226562 -5.613281 -3.878906 -6.484375 -3.265625 -7.140625 Z M -3.265625 -7.140625 "/></g></g></g><g fill="#ffffff" fill-opacity="1"><g transform="translate(131.105687, 112.001493)"><g><path d="M 3.4375 -2.359375 L 2.390625 -1.640625 L -4.046875 -5.96875 L -2.96875 -6.71875 L 2.171875 -3.125 L 0.71875 -9.234375 L 1.765625 -9.953125 Z M 3.4375 -2.359375 "/></g></g></g><g fill="#ffffff" fill-opacity="1"><g transform="translate(140.342499, 106.009883)"><g><path d="M 1.90625 -1.046875 L 0.828125 -0.453125 L -2.65625 -6.765625 L -1.578125 -7.359375 Z M 1.90625 -1.046875 "/></g></g></g><g fill="#ffffff" fill-opacity="1"><g transform="translate(146.504358, 102.688893)"><g><path d="M 6.625 -2.8125 L 5.53125 -2.359375 L -0.03125 -5.609375 L 2 -0.84375 L 0.875 -0.375 L -1.953125 -7.015625 L -0.859375 -7.484375 L 4.734375 -4.234375 L 2.703125 -9 L 3.796875 -9.453125 Z M 6.625 -2.8125 "/></g></g></g><g fill="#ffffff" fill-opacity="1"><g transform="translate(157.65373, 98.258337)"><g><path d="M 3.921875 -7.53125 L 1.734375 -6.890625 L 3.453125 -1.015625 L 2.28125 -0.671875 L 0.5625 -6.546875 L -1.625 -5.90625 L -1.9375 -6.953125 L 3.609375 -8.578125 Z M 3.921875 -7.53125 "/></g></g></g><g fill="#ffffff" fill-opacity="1"><g transform="translate(167.119737, 95.663984)"><g><path d="M 5.25 -2.546875 L 1.65625 -1.921875 L 1.265625 -0.21875 L 0.015625 0 L 1.921875 -7.65625 L 3.140625 -7.859375 L 7.484375 -1.296875 L 6.203125 -1.078125 Z M 4.59375 -3.546875 L 2.71875 -6.46875 L 1.921875 -3.078125 Z M 4.59375 -3.546875 "/></g></g></g><g fill="#ffffff" fill-opacity="1"><g transform="translate(178.414336, 93.9507)"><g><path d="M 5.71875 -3.828125 L 6.765625 -3.875 L 6.890625 -1.21875 C 6.546875 -0.914062 6.125 -0.664062 5.625 -0.46875 C 5.125 -0.28125 4.628906 -0.175781 4.140625 -0.15625 C 3.078125 -0.101562 2.160156 -0.410156 1.390625 -1.078125 C 0.628906 -1.742188 0.222656 -2.59375 0.171875 -3.625 C 0.117188 -4.65625 0.445312 -5.535156 1.15625 -6.265625 C 1.875 -6.992188 2.78125 -7.382812 3.875 -7.4375 C 4.382812 -7.457031 4.890625 -7.390625 5.390625 -7.234375 C 5.890625 -7.085938 6.316406 -6.863281 6.671875 -6.5625 L 6.046875 -5.640625 C 5.429688 -6.160156 4.722656 -6.40625 3.921875 -6.375 C 3.179688 -6.332031 2.570312 -6.050781 2.09375 -5.53125 C 1.613281 -5.019531 1.390625 -4.40625 1.421875 -3.6875 C 1.453125 -2.96875 1.734375 -2.367188 2.265625 -1.890625 C 2.804688 -1.421875 3.445312 -1.207031 4.1875 -1.25 C 4.738281 -1.269531 5.28125 -1.457031 5.8125 -1.8125 Z M 5.71875 -3.828125 "/></g></g></g><g fill="#ffffff" fill-opacity="1"><g transform="translate(189.960278, 93.657963)"><g><path d="M 6.53125 -5.671875 L 2.609375 -5.953125 L 2.46875 -4 L 5.96875 -3.75 L 5.890625 -2.65625 L 2.390625 -2.90625 L 2.25 -0.9375 L 6.296875 -0.65625 L 6.21875 0.4375 L 0.953125 0.0625 L 1.46875 -7.140625 L 6.609375 -6.765625 Z M 6.53125 -5.671875 "/></g></g></g><g fill="#ffffff" fill-opacity="1"><g transform="translate(200.5829, 94.6942)"><g/></g></g><g fill="#ffffff" fill-opacity="1"><g transform="translate(207.050834, 95.844207)"><g><path d="M 5.859375 -5.953125 C 6.359375 -5.828125 6.8125 -5.601562 7.21875 -5.28125 C 7.632812 -4.96875 7.972656 -4.597656 8.234375 -4.171875 L 7.3125 -3.5 C 7.132812 -3.832031 6.894531 -4.125 6.59375 -4.375 C 6.289062 -4.632812 5.960938 -4.8125 5.609375 -4.90625 C 4.898438 -5.09375 4.242188 -5.007812 3.640625 -4.65625 C 3.046875 -4.300781 2.65625 -3.78125 2.46875 -3.09375 C 2.289062 -2.414062 2.375 -1.773438 2.71875 -1.171875 C 3.070312 -0.566406 3.601562 -0.171875 4.3125 0.015625 C 5.039062 0.210938 5.757812 0.109375 6.46875 -0.296875 L 6.96875 0.65625 C 6.507812 0.914062 6.015625 1.085938 5.484375 1.171875 C 4.953125 1.253906 4.441406 1.226562 3.953125 1.09375 C 2.929688 0.820312 2.160156 0.253906 1.640625 -0.609375 C 1.117188 -1.472656 0.988281 -2.40625 1.25 -3.40625 C 1.519531 -4.394531 2.097656 -5.132812 2.984375 -5.625 C 3.878906 -6.113281 4.835938 -6.222656 5.859375 -5.953125 Z M 5.859375 -5.953125 "/></g></g></g><g fill="#ffffff" fill-opacity="1"><g transform="translate(217.63597, 98.874636)"><g><path d="M 5.8125 0.5625 L 2.4375 -0.78125 L 1.1875 0.46875 L 0.015625 0 L 5.640625 -5.515625 L 6.796875 -5.0625 L 7.046875 2.8125 L 5.84375 2.328125 Z M 5.78125 -0.625 L 5.703125 -4.09375 L 3.25 -1.640625 Z M 5.78125 -0.625 "/></g></g></g><g fill="#ffffff" fill-opacity="1"><g transform="translate(228.170531, 103.363271)"><g><path d="M 8 -2.65625 L 4.8125 -4.359375 L 3.828125 -2.53125 L 6.703125 -0.984375 L 6.1875 -0.015625 L 3.3125 -1.5625 L 1.90625 1.03125 L 0.84375 0.453125 L 4.265625 -5.90625 L 8.53125 -3.609375 Z M 8 -2.65625 "/></g></g></g><g fill="#ffffff" fill-opacity="1"><g transform="translate(236.698662, 108.166029)"><g><path d="M 8.5 -1.578125 L 5.25 -3.8125 L 4.140625 -2.203125 L 7.046875 -0.21875 L 6.4375 0.6875 L 3.53125 -1.296875 L 2.40625 0.328125 L 5.765625 2.625 L 5.140625 3.53125 L 0.78125 0.546875 L 4.875 -5.390625 L 9.125 -2.46875 Z M 8.5 -1.578125 "/></g></g></g></svg>